<svg width="24" height="24" viewBox="0 0 24 24" fill="none" xmlns="http://www.w3.org/2000/svg">
<path fill-rule="evenodd" clip-rule="evenodd" d="M14.9496 4.62604L14.2066 6.48349C13.5245 6.21037 12.7798 6.06012 12 6.06012C8.71955 6.06012 6.06018 8.71949 6.06018 12C6.06018 15.2805 8.71955 17.9399 12 17.9399C15.0811 17.9399 17.6142 15.5941 17.9109 12.5911L19.9011 12.7901C19.5045 16.8042 16.1185 19.9399 12 19.9399C7.61498 19.9399 4.06018 16.3851 4.06018 12C4.06018 7.61492 7.61498 4.06012 12 4.06012C13.0423 4.06012 14.0377 4.26096 14.9496 4.62604Z" fill="#CCD3DB"/>
<path fill-rule="evenodd" clip-rule="evenodd" d="M15.9893 2.03711L18.1381 7.09941L13.0758 9.24822L15.9893 2.03711Z" fill="#242E42"/>
</svg>
